#!OML:ASF I:\golf\golf\golf 2\Subject 1\2002-09-07\Subject1.ASF
:FULLY-SPECIFIED
:DEGREES
552
root -0.450946 17.8694 -5.03945 9.82505 -11.5265 -9.57732
lowerback -8.49275 -0.126374 -0.411625
upperback -3.29783 -0.283745 6.01394
thorax 1.37026 -0.121649 6.4879
lowerneck -23.8096 -2.15615 -0.787833
upperneck 24.2729 -3.02908 0.832933
head 11.9534 -1.32243 -0.0733567
rclavicle 1.15295e-014 -2.70347e-014
rhumerus -28.3749 0.93 -83.1281
rradius 31.9259
rwrist -8.62729
rhand -26.5346 15.5793
rfingers 7.12502
rthumb 0.0293918 -14.4004
lclavicle 1.15295e-014 -2.70347e-014
lhumerus -26.5725 1.11389 91.4453
lradius 29.2847
lwrist 4.39947
lhand -9.77682 31.3693
lfingers 7.12502
lthumb 16.1986 60.7125
rfemur -14.9124 -0.673278 31.3947
rtibia 29.4679
rfoot -16.639 -0.439828
rtoes 4.84423
lfemur -11.2115 1.95762 -4.55992
ltibia 29.9687
lfoot -18.418 14.1596
ltoes -14.4286
553
root -0.470075 17.8671 -5.02963 9.83325 -11.6463 -9.70274
lowerback -8.5795 -0.0879611 -0.274057
upperback -3.25377 -0.250149 6.07135
thorax 1.45997 -0.107607 6.47426
lowerneck -23.8309 -2.16069 -0.74261
upperneck 24.2318 -3.0279 0.752997
head 11.9391 -1.32871 -0.110576
rclavicle -3.62782e-015 -5.64548e-014
rhumerus -28.346 0.487326 -82.9301
rradius 31.6003
rwrist -8.37867
rhand -26.186 15.6185
rfingers 7.12502
rthumb 0.366073 -14.361
lclavicle -3.62782e-015 -5.64548e-014
lhumerus -26.5648 0.855191 91.582
lradius 29.4323
lwrist 4.50487
lhand -9.45706 31.17
lfingers 7.12502
lthumb 16.5064 60.4879
rfemur -14.8126 -0.655378 31.567
rtibia 29.4309
rfoot -16.6921 -0.324719
rtoes 5.05476
lfemur -11.0835 1.98943 -4.38336
ltibia 29.9727
lfoot -18.511 14.2019
ltoes -14.211
554
root -0.487685 17.8647 -5.02017 9.92209 -11.7967 -9.83763
lowerback -8.75007 -0.0525153 -0.121373
upperback -3.22171 -0.22503 6.14165
thorax 1.58456 -0.0981986 6.46588
lowerneck -23.8412 -2.14297 -0.64235
upperneck 24.1872 -2.99948 0.616481
head 11.9191 -1.32549 -0.17329
rclavicle 1.28962e-014 3.97569e-016
rhumerus -28.2328 0.00314156 -82.7055
rradius 31.1673
rwrist -8.17107
rhand -25.6903 15.6674
rfingers 7.12502
rthumb 0.844908 -14.3107
lclavicle 1.28962e-014 3.97569e-016
lhumerus -26.5164 0.6673 91.6915
lradius 29.5101
lwrist 4.58253
lhand -9.04503 31.3351
lfingers 7.12502
lthumb 16.9031 60.6195
rfemur -14.8022 -0.535045 31.7437
rtibia 29.3864
rfoot -16.6751 -0.318156
rtoes 4.60827
lfemur -11.044 1.92925 -4.21425
ltibia 29.9942
lfoot -18.5786 14.3756
ltoes -14.1803
555
root -0.506094 17.8648 -5.01349 10.0561 -11.8117 -9.85901
lowerback -8.8237 -0.0626469 -0.0519905
upperback -3.31437 -0.243194 6.16248
thorax 1.53076 -0.105555 6.44655
lowerneck -23.7583 -2.16605 -0.648265
upperneck 24.2043 -3.01866 0.573493
head 11.9091 -1.34109 -0.190898
rclavicle -2.01269e-015 -6.71892e-014
rhumerus -28.3301 -0.340332 -82.5323
rradius 30.7226
rwrist -8.10215
rhand -25.4284 15.9551
rfingers 7.12502
rthumb 1.09782 -14.0219
lclavicle -2.01269e-015 -6.71892e-014
lhumerus -26.5536 0.636986 91.7161
lradius 29.4233
lwrist 4.34199
lhand -8.92866 31.4383
lfingers 7.12502
lthumb 17.0151 60.7131
rfemur -14.8991 -0.474896 31.8187
rtibia 29.3582
rfoot -16.6442 -0.317142
rtoes 4.79835
lfemur -11.1443 1.88014 -4.1436
ltibia 30.0044
lfoot -18.6997 14.4184
ltoes -13.6926
556
root -0.526395 17.8637 -5.00666 10.0843 -11.6545 -9.78495
lowerback -8.83202 -0.148234 -0.0807217
upperback -3.37712 -0.352086 6.15838
thorax 1.48243 -0.158531 6.44738
lowerneck -23.7592 -2.16592 -0.705438
upperneck 24.2474 -3.00997 0.614111
head 11.9278 -1.33686 -0.165084
rclavicle 9.46712e-015 -5.96354e-015
rhumerus -28.5186 -0.463126 -82.4351
rradius 30.4255
rwrist -8.20017
rhand -25.1116 16.0411
rfingers 7.12502
rthumb 1.40379 -13.934
lclavicle 9.46712e-015 -5.96354e-015
lhumerus -26.563 0.568281 91.7133
lradius 29.3066
lwrist 4.15142
lhand -9.05881 31.1849
lfingers 7.12502
lthumb 16.8898 60.4705
rfemur -14.922 -0.628703 31.8238
rtibia 29.3463
rfoot -16.7377 -0.186841
rtoes 5.90202
lfemur -11.2211 1.83635 -4.12899
ltibia 29.9967
lfoot -18.7154 14.3306
ltoes -13.5064
557
root -0.548848 17.8595 -4.9991 10.046 -11.4776 -9.75429
lowerback -8.88874 -0.254313 -0.122339
upperback -3.32338 -0.495391 6.18033
thorax 1.58632 -0.232711 6.48085
lowerneck -23.8829 -2.1238 -0.685206
upperneck 24.2311 -2.96573 0.645798
head 11.9453 -1.31004 -0.150254
rclavicle 3.13086e-015 -3.65764e-014
rhumerus -28.4918 -0.934547 -82.2503
rradius 30.026
rwrist -8.0037
rhand -24.4006 16.0392
rfingers 7.12502
rthumb 2.09045 -13.9303
lclavicle 3.13086e-015 -3.65764e-014
lhumerus -26.4678 0.31411 91.7449
lradius 29.2875
lwrist 4.31617
lhand -9.00626 30.9818
lfingers 7.12502
lthumb 16.9404 60.263
rfemur -14.8481 -0.746321 31.8918
rtibia 29.3467
rfoot -16.8654 -0.146233
rtoes 6.65721
lfemur -11.1929 1.81161 -4.04885
ltibia 29.9736
lfoot -18.4962 14.3143
ltoes -14.7962
558
root -0.567932 17.8571 -4.99046 10.0953 -11.4923 -9.81027
lowerback -8.91549 -0.281921 -0.0517812
upperback -3.34515 -0.539461 6.21973
thorax 1.58323 -0.25488 6.47789
lowerneck -23.92 -2.10366 -0.652332
upperneck 24.2742 -2.95215 0.650983
head 11.9686 -1.29967 -0.152152
rclavicle 2.5842e-015 -1.11319e-014
rhumerus -28.54 -1.4836 -82.0142
rradius 29.5574
rwrist -7.73462
rhand -23.667 16.096
rfingers 7.12502
rthumb 2.799 -13.8654
lclavicle 2.5842e-015 -1.11319e-014
lhumerus -26.5199 0.140404 91.7727
lradius 29.2564
lwrist 4.40673
lhand -8.81515 30.9826
lfingers 7.12502
lthumb 17.1244 60.248
rfemur -14.8317 -0.696568 32.007
rtibia 29.3608
rfoot -16.868 -0.182536
rtoes 6.38586
lfemur -11.1368 1.81091 -3.93228
ltibia 29.9322
lfoot -18.3919 14.4298
ltoes -15.4493
559
root -0.582769 17.8569 -4.98088 10.1417 -11.6374 -9.83973
lowerback -8.97598 -0.257859 0.0537488
upperback -3.36787 -0.518018 6.22932
thorax 1.58991 -0.244518 6.42974
lowerneck -23.8786 -2.08879 -0.545532
upperneck 24.2756 -2.93161 0.513284
head 11.9565 -1.29966 -0.217569
rclavicle 3.6303e-014 -9.93923e-015
rhumerus -28.6678 -1.83904 -81.8192
rradius 29.1913
rwrist -7.68264
rhand -23.0026 15.8338
rfingers 7.12502
rthumb 3.44063 -14.1182
lclavicle 3.6303e-014 -9.93923e-015
lhumerus -26.6007 0.236837 91.7296
lradius 29.1472
lwrist 4.22632
lhand -8.54725 31.3082
lfingers 7.12502
lthumb 17.3822 60.551
rfemur -14.8278 -0.680126 32.0533
rtibia 29.3794
rfoot -16.8347 -0.0795452
rtoes 5.93813
lfemur -11.053 1.78567 -3.89489
ltibia 29.8843
lfoot -18.4057 14.6282
ltoes -15.1043
560
root -0.599926 17.8543 -4.97162 10.104 -11.7191 -9.83996
lowerback -9.13032 -0.265051 0.0631469
upperback -3.27934 -0.539742 6.25855
thorax 1.76992 -0.259432 6.45479
lowerneck -23.8469 -2.07938 -0.464185
upperneck 24.1437 -2.89214 0.329196
head 11.8941 -1.30064 -0.291881
rclavicle 1.3418e-015 -1.59028e-014
rhumerus -28.706 -2.13125 -81.602
rradius 28.918
rwrist -7.80286
rhand -22.0882 15.366
rfingers 7.12502
rthumb 4.32356 -14.5698
lclavicle 1.3418e-015 -1.59028e-014
lhumerus -26.5184 0.41053 91.6894
lradius 28.9825
lwrist 4.07245
lhand -8.18035 31.7811
lfingers 7.12502
lthumb 17.7353 60.9923
rfemur -14.732 -0.692658 32.086
rtibia 29.3742
rfoot -16.9176 0.0750489
rtoes 6.40254
lfemur -10.9444 1.7193 -3.8641
ltibia 29.8652
lfoot -18.3181 14.8261
ltoes -15.4861
561
root -0.619972 17.8502 -4.96311 10.1238 -11.7093 -9.88997
lowerback -9.21845 -0.308873 0.0505855
upperback -3.2582 -0.60434 6.34366
thorax 1.84865 -0.293362 6.54729
lowerneck -23.8452 -2.12463 -0.57302
upperneck 24.1488 -2.91635 0.332902
head 11.8977 -1.32134 -0.276627
rclavicle 7.05686e-015 2.54444e-014
rhumerus -28.8843 -2.12218 -81.4112
rradius 28.7637
rwrist -8.14597
rhand -21.1424 14.9583
rfingers 7.12502
rthumb 5.2369 -14.957
lclavicle 7.05686e-015 2.54444e-014
lhumerus -26.4769 0.521599 91.6935
lradius 28.751
lwrist 3.98382
lhand -8.29876 31.7422
lfingers 7.12502
lthumb 17.6214 60.9637
rfemur -14.678 -0.720351 32.2001
rtibia 29.3477
rfoot -17.0059 0.197212
rtoes 7.21078
lfemur -10.9266 1.72044 -3.73683
ltibia 29.8746
lfoot -18.2833 14.8439
ltoes -15.9263
562
root -0.637214 17.8484 -4.95633 10.2018 -11.6437 -10.0097
lowerback -9.15621 -0.345869 0.191698
upperback -3.35121 -0.661048 6.40621
thorax 1.72308 -0.319236 6.52609
lowerneck -23.8604 -2.14553 -0.60589
upperneck 24.2851 -2.94262 0.353118
head 11.9546 -1.33269 -0.26943
rclavicle 7.40473e-015 5.52621e-014
rhumerus -29.2654 -2.061 -81.2834
rradius 28.7361
rwrist -8.60397
rhand -20.2523 14.2783
rfingers 7.12502
rthumb 6.09624 -15.614
lclavicle 7.40473e-015 5.52621e-014
lhumerus -26.6117 0.575895 91.6501
lradius 28.6115
lwrist 3.97951
lhand -8.71942 31.6882
lfingers 7.12502
lthumb 17.2165 60.9455
rfemur -14.6885 -0.790452 32.3946
rtibia 29.3084
rfoot -16.979 0.256728
rtoes 7.43447
lfemur -10.9766 1.83233 -3.52322
ltibia 29.8983
lfoot -18.2818 14.7037
ltoes -16.1961
563
root -0.653657 17.8455 -4.95005 10.1899 -11.4662 -10.0947
lowerback -9.04873 -0.410684 0.34444
upperback -3.42438 -0.753406 6.43501
thorax 1.59655 -0.363522 6.45816
lowerneck -23.8539 -2.12206 -0.586646
upperneck 24.3654 -2.92317 0.368312
head 11.9845 -1.31973 -0.264209
rclavicle 1.93318e-014 6.87795e-014
rhumerus -29.6053 -2.29326 -81.0987
rradius 28.6373
rwrist -8.89948
rhand -19.2569 13.4204
rfingers 7.12502
rthumb 7.05722 -16.4419
lclavicle 1.93318e-014 6.87795e-014
lhumerus -26.7602 0.664836 91.5751
lradius 28.5399
lwrist 4.06492
lhand -8.70623 32.1051
lfingers 7.12502
lthumb 17.2292 61.3613
rfemur -14.6137 -0.849307 32.5762
rtibia 29.2573
rfoot -16.9647 0.127721
rtoes 7.26563
lfemur -10.9885 1.8583 -3.32387
ltibia 29.9373
lfoot -18.2726 14.5473
ltoes -16.3935
564
root -0.672845 17.844 -4.94239 10.1852 -11.2319 -10.049
lowerback -9.09369 -0.518806 0.297547
upperback -3.43812 -0.895647 6.46923
thorax 1.62384 -0.434905 6.50694
lowerneck -23.8068 -2.14226 -0.612138
upperneck 24.3081 -2.95047 0.39868
head 11.9543 -1.33084 -0.25225
rclavicle 1.4387e-014 -1.39149e-014
rhumerus -29.7456 -2.61239 -80.858
rradius 28.2861
rwrist -8.8133
rhand -18.5652 12.9621
rfingers 7.12502
rthumb 7.72481 -16.8768
lclavicle 1.4387e-014 -1.39149e-014
lhumerus -26.742 1.05369 91.4767
lradius 28.2527
lwrist 3.83824
lhand -8.35115 32.3009
lfingers 7.12502
lthumb 17.5709 61.5269
rfemur -14.5728 -0.910189 32.6383
rtibia 29.2104
rfoot -16.9875 -0.0522194
rtoes 7.16349
lfemur -11.0485 1.74392 -3.25864
ltibia 29.9784
lfoot -18.3731 14.4309
ltoes -16.1118
565
root -0.691304 17.8447 -4.9354 10.2676 -11.201 -10.0201
lowerback -9.18795 -0.581845 0.247117
upperback -3.45732 -0.980159 6.52693
thorax 1.66687 -0.477551 6.58921
lowerneck -23.7414 -2.15303 -0.596885
upperneck 24.1745 -2.95151 0.338084
head 11.8884 -1.3394 -0.275793
rclavicle 8.34896e-015 -2.90226e-014
rhumerus -29.8377 -2.85624 -80.6152
rradius 27.7931
rwrist -8.43105
rhand -18.2124 12.8544
rfingers 7.12502
rthumb 8.06532 -16.9717
lclavicle 8.34896e-015 -2.90226e-014
lhumerus -26.7386 1.65923 91.3259
lradius 27.8938
lwrist 3.36605
lhand -8.12595 32.0844
lfingers 7.12502
lthumb 17.7877 61.2908
rfemur -14.615 -0.886782 32.6776
rtibia 29.177
rfoot -17.0077 -0.110439
rtoes 6.85222
lfemur -11.109 1.67582 -3.23084
ltibia 30.0146
lfoot -18.5677 14.4152
ltoes -15.4484
566
root -0.707087 17.8429 -4.92978 10.3055 -11.3215 -10.0381
lowerback -9.15531 -0.586949 0.299127
upperback -3.51204 -0.988536 6.55865
thorax 1.59245 -0.480359 6.59239
lowerneck -23.6327 -2.12278 -0.621194
upperneck 24.0736 -2.903 0.353553
head 11.829 -1.31917 -0.2557
rclavicle -6.65929e-015 -1.74931e-014
rhumerus -30.0373 -3.20654 -80.3409
rradius 27.3118
rwrist -7.96071
rhand -17.7227 12.6246
rfingers 7.12502
rthumb 8.53797 -17.1828
lclavicle -6.65929e-015 -1.74931e-014
lhumerus -26.9102 1.88982 91.2071
lradius 27.6716
lwrist 3.34827
lhand -8.10836 32.0072
lfingers 7.12502
lthumb 17.8046 61.2121
rfemur -14.5863 -0.845021 32.7288
rtibia 29.1469
rfoot -17.0499 -0.0888743
rtoes 6.50951
lfemur -11.0662 1.66615 -3.19071
ltibia 30.0552
lfoot -18.72 14.4985
ltoes -15.1021
